<svg version="1.1" viewBox="0 0 96 96" xmlns="http://www.w3.org/2000/svg" xmlns:xlink="http://www.w3.org/1999/xlink" id="Icons_Camera" overflow="hidden"><style>
.MsftOfcThm_Background1_Fill {
 fill:#FFFFFF; 
}
</style>
<path d=" M 48 73 C 38 73 30 65 30 55 C 30 45 38 37 48 37 C 58 37 66 45 66 55 C 66 65 58 73 48 73 Z M 28 41 L 16 41 L 16 33 L 28 33 L 28 41 Z M 84 25 L 64 25 L 58 15 L 38 15 L 32 25 L 12 25 C 9.8 25 8 26.8 8 29 L 8 77 C 8 79.2 9.8 81 12 81 L 84 81 C 86.2 81 88 79.2 88 77 L 88 29 C 88 26.8 86.2 25 84 25 Z" class="MsftOfcThm_Background1_Fill" stroke="none" stroke-width="1" stroke-dasharray="" stroke-dashoffset="1" fill="#FFFFFF" fill-opacity="1"/><path d=" M 48 45 C 42.4 45 38 49.4 38 55 C 38 60.6 42.4 65 48 65 C 53.6 65 58 60.6 58 55 C 58 49.4 53.6 45 48 45 Z M 48 69 C 40.2 69 34 62.8 34 55 C 34 47.2 40.2 41 48 41 C 55.8 41 62 47.2 62 55 C 62 62.8 55.8 69 48 69 Z" class="MsftOfcThm_Background1_Fill" stroke="none" stroke-width="1" stroke-dasharray="" stroke-dashoffset="1" fill="#FFFFFF" fill-opacity="1"/></svg>