<svg version="1.1" viewBox="0 0 96 96" xmlns="http://www.w3.org/2000/svg" xmlns:xlink="http://www.w3.org/1999/xlink" id="Icons_Processor" overflow="hidden"><style>
.MsftOfcThm_Background1_Fill {
 fill:#FFFFFF; 
}
</style>
<rect x="10" y="34" width="7" height="4" class="MsftOfcThm_Background1_Fill" stroke="none" stroke-width="1" stroke-dasharray="" stroke-dashoffset="1" fill="#FFFFFF" fill-opacity="1"/><rect x="10" y="26" width="7" height="4" class="MsftOfcThm_Background1_Fill" stroke="none" stroke-width="1" stroke-dasharray="" stroke-dashoffset="1" fill="#FFFFFF" fill-opacity="1"/><rect x="10" y="42" width="7" height="4" class="MsftOfcThm_Background1_Fill" stroke="none" stroke-width="1" stroke-dasharray="" stroke-dashoffset="1" fill="#FFFFFF" fill-opacity="1"/><rect x="10" y="66" width="7" height="4" class="MsftOfcThm_Background1_Fill" stroke="none" stroke-width="1" stroke-dasharray="" stroke-dashoffset="1" fill="#FFFFFF" fill-opacity="1"/><rect x="10" y="58" width="7" height="4" class="MsftOfcThm_Background1_Fill" stroke="none" stroke-width="1" stroke-dasharray="" stroke-dashoffset="1" fill="#FFFFFF" fill-opacity="1"/><rect x="10" y="50" width="7" height="4" class="MsftOfcThm_Background1_Fill" stroke="none" stroke-width="1" stroke-dasharray="" stroke-dashoffset="1" fill="#FFFFFF" fill-opacity="1"/><rect x="79" y="58" width="7" height="4" class="MsftOfcThm_Background1_Fill" stroke="none" stroke-width="1" stroke-dasharray="" stroke-dashoffset="1" fill="#FFFFFF" fill-opacity="1"/><rect x="79" y="66" width="7" height="4" class="MsftOfcThm_Background1_Fill" stroke="none" stroke-width="1" stroke-dasharray="" stroke-dashoffset="1" fill="#FFFFFF" fill-opacity="1"/><rect x="79" y="50" width="7" height="4" class="MsftOfcThm_Background1_Fill" stroke="none" stroke-width="1" stroke-dasharray="" stroke-dashoffset="1" fill="#FFFFFF" fill-opacity="1"/><rect x="79" y="26" width="7" height="4" class="MsftOfcThm_Background1_Fill" stroke="none" stroke-width="1" stroke-dasharray="" stroke-dashoffset="1" fill="#FFFFFF" fill-opacity="1"/><rect x="79" y="42" width="7" height="4" class="MsftOfcThm_Background1_Fill" stroke="none" stroke-width="1" stroke-dasharray="" stroke-dashoffset="1" fill="#FFFFFF" fill-opacity="1"/><rect x="79" y="34" width="7" height="4" class="MsftOfcThm_Background1_Fill" stroke="none" stroke-width="1" stroke-dasharray="" stroke-dashoffset="1" fill="#FFFFFF" fill-opacity="1"/><rect x="50" y="10" width="4" height="7" class="MsftOfcThm_Background1_Fill" stroke="none" stroke-width="1" stroke-dasharray="" stroke-dashoffset="1" fill="#FFFFFF" fill-opacity="1"/><rect x="66" y="10" width="4" height="7" class="MsftOfcThm_Background1_Fill" stroke="none" stroke-width="1" stroke-dasharray="" stroke-dashoffset="1" fill="#FFFFFF" fill-opacity="1"/><rect x="58" y="10" width="4" height="7" class="MsftOfcThm_Background1_Fill" stroke="none" stroke-width="1" stroke-dasharray="" stroke-dashoffset="1" fill="#FFFFFF" fill-opacity="1"/><rect x="42" y="10" width="4" height="7" class="MsftOfcThm_Background1_Fill" stroke="none" stroke-width="1" stroke-dasharray="" stroke-dashoffset="1" fill="#FFFFFF" fill-opacity="1"/><rect x="26" y="10" width="4" height="7" class="MsftOfcThm_Background1_Fill" stroke="none" stroke-width="1" stroke-dasharray="" stroke-dashoffset="1" fill="#FFFFFF" fill-opacity="1"/><rect x="34" y="10" width="4" height="7" class="MsftOfcThm_Background1_Fill" stroke="none" stroke-width="1" stroke-dasharray="" stroke-dashoffset="1" fill="#FFFFFF" fill-opacity="1"/><rect x="34" y="79" width="4" height="7" class="MsftOfcThm_Background1_Fill" stroke="none" stroke-width="1" stroke-dasharray="" stroke-dashoffset="1" fill="#FFFFFF" fill-opacity="1"/><rect x="26" y="79" width="4" height="7" class="MsftOfcThm_Background1_Fill" stroke="none" stroke-width="1" stroke-dasharray="" stroke-dashoffset="1" fill="#FFFFFF" fill-opacity="1"/><rect x="42" y="79" width="4" height="7" class="MsftOfcThm_Background1_Fill" stroke="none" stroke-width="1" stroke-dasharray="" stroke-dashoffset="1" fill="#FFFFFF" fill-opacity="1"/><rect x="50" y="79" width="4" height="7" class="MsftOfcThm_Background1_Fill" stroke="none" stroke-width="1" stroke-dasharray="" stroke-dashoffset="1" fill="#FFFFFF" fill-opacity="1"/><rect x="58" y="79" width="4" height="7" class="MsftOfcThm_Background1_Fill" stroke="none" stroke-width="1" stroke-dasharray="" stroke-dashoffset="1" fill="#FFFFFF" fill-opacity="1"/><rect x="66" y="79" width="4" height="7" class="MsftOfcThm_Background1_Fill" stroke="none" stroke-width="1" stroke-dasharray="" stroke-dashoffset="1" fill="#FFFFFF" fill-opacity="1"/><rect x="35" y="35" width="26" height="26" class="MsftOfcThm_Background1_Fill" stroke="none" stroke-width="1" stroke-dasharray="" stroke-dashoffset="1" fill="#FFFFFF" fill-opacity="1"/><path d=" M 71 21 L 25 21 C 22.7909 21 21 22.7909 21 25 L 21 71 C 21 73.2091 22.7909 75 25 75 L 71 75 C 73.2091 75 75 73.2091 75 71 L 75 25 C 75 22.7909 73.2091 21 71 21 Z M 65 65 L 31 65 L 31 31 L 65 31 Z" class="MsftOfcThm_Background1_Fill" stroke="none" stroke-width="1" stroke-dasharray="" stroke-dashoffset="1" fill="#FFFFFF" fill-opacity="1"/></svg>