<svg version="1.1" width="550.72" height="288" viewBox="0 0 550.72 288" xmlns="http://www.w3.org/2000/svg" xmlns:xlink="http://www.w3.org/1999/xlink" overflow="visible"><defs></defs><g><g><defs><rect x="33.34" y="0" width="432" height="288" id="SVGID_1_"/></defs><radialGradient cx="245.939" cy="138.331" r="254.094" gradientUnits="userSpaceOnUse" id="SVGID_2_"><stop offset="0.186" stop-color="#002B9B"/><stop offset="0.2822" stop-color="#002291"/><stop offset="0.5354" stop-color="#000F7B"/><stop offset="0.7788" stop-color="#00046D"/><stop offset="1" stop-color="#000069"/></radialGradient><clipPath id="SVGID_3_"><use width="100%" height="100%" xlink:href="#SVGID_1_" overflow="visible"></use></clipPath><defs><filter id="Adobe_OpacityMaskFilter" x="0" y="45.36" width="550.72" height="181.76" filterUnits="userSpaceOnUse" primitiveUnits="userSpaceOnUse"><feColorMatrix type="matrix" values="1 0 0 0 0 0 1 0 0 0 0 0 1 0 0 0 0 0 1 0 "/></filter></defs><mask maskUnits="userSpaceOnUse" x="0" y="45.36" width="550.72" height="181.76" id="SVGID_4_"><g filter="url(#Adobe_OpacityMaskFilter)"><radialGradient cx="112.995" cy="149.669" r="93.0332" gradientUnits="userSpaceOnUse" id="SVGID_5_"><stop offset="0.256" stop-color="#000000"/><stop offset="0.3774" stop-color="#404040"/><stop offset="0.5003" stop-color="#797979"/><stop offset="0.6196" stop-color="#A9A9A9"/><stop offset="0.7321" stop-color="#CECECE"/><stop offset="0.8361" stop-color="#E9E9E9"/><stop offset="0.9285" stop-color="#F9F9F9"/><stop offset="1" stop-color="#FFFFFF"/></radialGradient><rect x="-12.58" y="46.77" width="539.15" height="221.95" fill="url(#SVGID_5_)" clip-path="url(#SVGID_3_)"/></g></mask><use width="100%" height="100%" xlink:href="#SVGID_1_" fill="url(#SVGID_2_)" overflow="visible"></use><g clip-path="url(#SVGID_3_)" mask="url(#SVGID_4_)"><radialGradient cx="270.568" cy="189.372" r="187.843" gradientUnits="userSpaceOnUse" id="SVGID_6_"><stop offset="0.473" stop-color="#BFBFBF"/><stop offset="1" stop-color="#3B3B3B"/></radialGradient><radialGradient cx="7.7102" cy="152.152" r="1.9808" gradientUnits="userSpaceOnUse" id="SVGID_7_"><stop offset="0.473" stop-color="#BFBFBF"/><stop offset="1" stop-color="#3B3B3B"/></radialGradient><radialGradient cx="246.037" cy="139.233" r="169.081" gradientUnits="userSpaceOnUse" id="SVGID_8_"><stop offset="0.473" stop-color="#BFBFBF"/><stop offset="1" stop-color="#3B3B3B"/></radialGradient><radialGradient cx="61.3398" cy="149.581" r="38.9179" gradientUnits="userSpaceOnUse" id="SVGID_9_"><stop offset="0.473" stop-color="#BFBFBF"/><stop offset="1" stop-color="#3B3B3B"/></radialGradient><radialGradient cx="9.3623" cy="132.297" r="1.9816" gradientUnits="userSpaceOnUse" id="SVGID_10_"><stop offset="0.473" stop-color="#BFBFBF"/><stop offset="1" stop-color="#3B3B3B"/></radialGradient><radialGradient cx="112.972" cy="166.95" r="1.9793" gradientUnits="userSpaceOnUse" id="SVGID_11_"><stop offset="0.473" stop-color="#BFBFBF"/><stop offset="1" stop-color="#3B3B3B"/></radialGradient><radialGradient cx="210.978" cy="142.843" r="74.2312" gradientUnits="userSpaceOnUse" id="SVGID_12_"><stop offset="0.473" stop-color="#BFBFBF"/><stop offset="1" stop-color="#3B3B3B"/></radialGradient><radialGradient cx="106.868" cy="134.865" r="1.9793" gradientUnits="userSpaceOnUse" id="SVGID_13_"><stop offset="0.473" stop-color="#BFBFBF"/><stop offset="1" stop-color="#3B3B3B"/></radialGradient><radialGradient cx="315.428" cy="134.45" r="1.9806" gradientUnits="userSpaceOnUse" id="SVGID_14_"><stop offset="0.473" stop-color="#BFBFBF"/><stop offset="1" stop-color="#3B3B3B"/></radialGradient><radialGradient cx="150.718" cy="127.626" r="19.5385" gradientUnits="userSpaceOnUse" id="SVGID_15_"><stop offset="0.473" stop-color="#BFBFBF"/><stop offset="1" stop-color="#3B3B3B"/></radialGradient><radialGradient cx="123.799" cy="132.881" r="1.9806" gradientUnits="userSpaceOnUse" id="SVGID_16_"><stop offset="0.473" stop-color="#BFBFBF"/><stop offset="1" stop-color="#3B3B3B"/></radialGradient><radialGradient cx="383.8" cy="92.4371" r="109.655" gradientUnits="userSpaceOnUse" id="SVGID_17_"><stop offset="0.473" stop-color="#BFBFBF"/><stop offset="1" stop-color="#3B3B3B"/></radialGradient><radialGradient cx="236.486" cy="139.071" r="1.9806" gradientUnits="userSpaceOnUse" id="SVGID_18_"><stop offset="0.473" stop-color="#BFBFBF"/><stop offset="1" stop-color="#3B3B3B"/></radialGradient><radialGradient cx="346.143" cy="126.41" r="70.5785" gradientUnits="userSpaceOnUse" id="SVGID_19_"><stop offset="0.473" stop-color="#BFBFBF"/><stop offset="1" stop-color="#3B3B3B"/></radialGradient><radialGradient cx="248.164" cy="142.575" r="1.9805" gradientUnits="userSpaceOnUse" id="SVGID_20_"><stop offset="0.473" stop-color="#BFBFBF"/><stop offset="1" stop-color="#3B3B3B"/></radialGradient><radialGradient cx="369.955" cy="137.843" r="59.2255" gradientUnits="userSpaceOnUse" id="SVGID_21_"><stop offset="0.473" stop-color="#BFBFBF"/><stop offset="1" stop-color="#3B3B3B"/></radialGradient><radialGradient cx="287.57" cy="140.179" r="1.9802" gradientUnits="userSpaceOnUse" id="SVGID_22_"><stop offset="0.473" stop-color="#BFBFBF"/><stop offset="1" stop-color="#3B3B3B"/></radialGradient><radialGradient cx="390.683" cy="117.92" r="81.3902" gradientUnits="userSpaceOnUse" id="SVGID_23_"><stop offset="0.473" stop-color="#BFBFBF"/><stop offset="1" stop-color="#3B3B3B"/></radialGradient><radialGradient cx="314.49" cy="192.45" r="138.882" gradientUnits="userSpaceOnUse" id="SVGID_24_"><stop offset="0.473" stop-color="#BFBFBF"/><stop offset="1" stop-color="#3B3B3B"/></radialGradient><radialGradient cx="54.38" cy="175.504" r="32.1635" gradientUnits="userSpaceOnUse" id="SVGID_25_"><stop offset="0.473" stop-color="#BFBFBF"/><stop offset="1" stop-color="#3B3B3B"/></radialGradient><radialGradient cx="9.3623" cy="170.248" r="1.9817" gradientUnits="userSpaceOnUse" id="SVGID_26_"><stop offset="0.473" stop-color="#BFBFBF"/><stop offset="1" stop-color="#3B3B3B"/></radialGradient><radialGradient cx="48.5425" cy="163.971" r="31.3602" gradientUnits="userSpaceOnUse" id="SVGID_27_"><stop offset="0.473" stop-color="#BFBFBF"/><stop offset="1" stop-color="#3B3B3B"/></radialGradient><radialGradient cx="4.6913" cy="158.57" r="1.9796" gradientUnits="userSpaceOnUse" id="SVGID_28_"><stop offset="0.473" stop-color="#BFBFBF"/><stop offset="1" stop-color="#3B3B3B"/></radialGradient><radialGradient cx="92.3969" cy="169.372" r="1.9806" gradientUnits="userSpaceOnUse" id="SVGID_29_"><stop offset="0.473" stop-color="#BFBFBF"/><stop offset="1" stop-color="#3B3B3B"/></radialGradient><radialGradient cx="439.218" cy="146.967" r="44.1116" gradientUnits="userSpaceOnUse" id="SVGID_30_"><stop offset="0.473" stop-color="#BFBFBF"/><stop offset="1" stop-color="#3B3B3B"/></radialGradient><radialGradient cx="381.867" cy="170.015" r="1.9815" gradientUnits="userSpaceOnUse" id="SVGID_31_"><stop offset="0.473" stop-color="#BFBFBF"/><stop offset="1" stop-color="#3B3B3B"/></radialGradient><radialGradient cx="469.747" cy="195.414" r="58.8587" gradientUnits="userSpaceOnUse" id="SVGID_32_"><stop offset="0.473" stop-color="#BFBFBF"/><stop offset="1" stop-color="#3B3B3B"/></radialGradient><radialGradient cx="388.869" cy="176.67" r="1.9808" gradientUnits="userSpaceOnUse" id="SVGID_33_"><stop offset="0.473" stop-color="#BFBFBF"/><stop offset="1" stop-color="#3B3B3B"/></radialGradient><radialGradient cx="455.619" cy="158.492" r="41.0767" gradientUnits="userSpaceOnUse" id="SVGID_34_"><stop offset="0.473" stop-color="#BFBFBF"/><stop offset="1" stop-color="#3B3B3B"/></radialGradient><radialGradient cx="399.383" cy="168.263" r="1.981" gradientUnits="userSpaceOnUse" id="SVGID_35_"><stop offset="0.473" stop-color="#BFBFBF"/><stop offset="1" stop-color="#3B3B3B"/></radialGradient><radialGradient cx="511.856" cy="146.214" r="1.9798" gradientUnits="userSpaceOnUse" id="SVGID_36_"><stop offset="0.473" stop-color="#BFBFBF"/><stop offset="1" stop-color="#3B3B3B"/></radialGradient><radialGradient cx="488.941" cy="139.462" r="21.0287" gradientUnits="userSpaceOnUse" id="SVGID_37_"><stop offset="0.473" stop-color="#BFBFBF"/><stop offset="1" stop-color="#3B3B3B"/></radialGradient><radialGradient cx="461.853" cy="150.981" r="1.9796" gradientUnits="userSpaceOnUse" id="SVGID_38_"><stop offset="0.473" stop-color="#BFBFBF"/><stop offset="1" stop-color="#3B3B3B"/></radialGradient><radialGradient cx="515.688" cy="127.858" r="1.9818" gradientUnits="userSpaceOnUse" id="SVGID_39_"><stop offset="0.473" stop-color="#BFBFBF"/><stop offset="1" stop-color="#3B3B3B"/></radialGradient><radialGradient cx="475.111" cy="156.721" r="48.0746" gradientUnits="userSpaceOnUse" id="SVGID_40_"><stop offset="0.473" stop-color="#BFBFBF"/><stop offset="1" stop-color="#3B3B3B"/></radialGradient><radialGradient cx="410.472" cy="168.496" r="1.9815" gradientUnits="userSpaceOnUse" id="SVGID_41_"><stop offset="0.473" stop-color="#BFBFBF"/><stop offset="1" stop-color="#3B3B3B"/></radialGradient><radialGradient cx="539.408" cy="136.398" r="1.9809" gradientUnits="userSpaceOnUse" id="SVGID_42_"><stop offset="0.473" stop-color="#BFBFBF"/><stop offset="1" stop-color="#3B3B3B"/></radialGradient><radialGradient cx="445.689" cy="182.813" r="12.547" gradientUnits="userSpaceOnUse" id="SVGID_43_"><stop offset="0.473" stop-color="#BFBFBF"/><stop offset="1" stop-color="#3B3B3B"/></radialGradient><radialGradient cx="429.157" cy="178.071" r="1.9795" gradientUnits="userSpaceOnUse" id="SVGID_44_"><stop offset="0.473" stop-color="#BFBFBF"/><stop offset="1" stop-color="#3B3B3B"/></radialGradient><radialGradient cx="418.649" cy="137.649" r="2.3646" gradientUnits="userSpaceOnUse" id="SVGID_45_"><stop offset="0.473" stop-color="#BFBFBF"/><stop offset="1" stop-color="#3B3B3B"/></radialGradient><radialGradient cx="244.142" cy="145.412" r="90.9143" gradientUnits="userSpaceOnUse" id="SVGID_46_"><stop offset="0.473" stop-color="#BFBFBF"/><stop offset="1" stop-color="#3B3B3B"/></radialGradient><radialGradient cx="142.779" cy="143.795" r="12.593" gradientUnits="userSpaceOnUse" id="SVGID_47_"><stop offset="0.473" stop-color="#BFBFBF"/><stop offset="1" stop-color="#3B3B3B"/></radialGradient><radialGradient cx="159.131" cy="137.649" r="2.3655" gradientUnits="userSpaceOnUse" id="SVGID_48_"><stop offset="0.473" stop-color="#BFBFBF"/><stop offset="1" stop-color="#3B3B3B"/></radialGradient><radialGradient cx="223.153" cy="153.252" r="15.8459" gradientUnits="userSpaceOnUse" id="SVGID_49_"><stop offset="0.473" stop-color="#BFBFBF"/><stop offset="1" stop-color="#3B3B3B"/></radialGradient><radialGradient cx="202.323" cy="146.998" r="2.3643" gradientUnits="userSpaceOnUse" id="SVGID_50_"><stop offset="0.473" stop-color="#BFBFBF"/><stop offset="1" stop-color="#3B3B3B"/></radialGradient><radialGradient cx="251.621" cy="170.665" r="61.5743" gradientUnits="userSpaceOnUse" id="SVGID_51_"><stop offset="0.473" stop-color="#BFBFBF"/><stop offset="1" stop-color="#3B3B3B"/></radialGradient><radialGradient cx="336.235" cy="151.214" r="2.3636" gradientUnits="userSpaceOnUse" id="SVGID_52_"><stop offset="0.473" stop-color="#BFBFBF"/><stop offset="1" stop-color="#3B3B3B"/></radialGradient><radialGradient cx="355.939" cy="131.672" r="26.3293" gradientUnits="userSpaceOnUse" id="SVGID_53_"><stop offset="0.473" stop-color="#BFBFBF"/><stop offset="1" stop-color="#3B3B3B"/></radialGradient><radialGradient cx="353.355" cy="165.327" r="43.4731" gradientUnits="userSpaceOnUse" id="SVGID_54_"><stop offset="0.473" stop-color="#BFBFBF"/><stop offset="1" stop-color="#3B3B3B"/></radialGradient><radialGradient cx="412.558" cy="179.357" r="2.3644" gradientUnits="userSpaceOnUse" id="SVGID_55_"><stop offset="0.473" stop-color="#BFBFBF"/><stop offset="1" stop-color="#3B3B3B"/></radialGradient><radialGradient cx="33.0432" cy="149.038" r="24.6822" gradientUnits="userSpaceOnUse" id="SVGID_56_"><stop offset="0.473" stop-color="#BFBFBF"/><stop offset="1" stop-color="#3B3B3B"/></radialGradient><radialGradient cx="65.9682" cy="138.416" r="2.3638" gradientUnits="userSpaceOnUse" id="SVGID_57_"><stop offset="0.473" stop-color="#BFBFBF"/><stop offset="1" stop-color="#3B3B3B"/></radialGradient><radialGradient cx="95.9075" cy="132.392" r="9.6602" gradientUnits="userSpaceOnUse" id="SVGID_58_"><stop offset="0.473" stop-color="#BFBFBF"/><stop offset="1" stop-color="#3B3B3B"/></radialGradient><radialGradient cx="83.5721" cy="128.315" r="2.3641" gradientUnits="userSpaceOnUse" id="SVGID_59_"><stop offset="0.473" stop-color="#BFBFBF"/><stop offset="1" stop-color="#3B3B3B"/></radialGradient><radialGradient cx="214.033" cy="137.148" r="19.9249" gradientUnits="userSpaceOnUse" id="SVGID_60_"><stop offset="0.473" stop-color="#BFBFBF"/><stop offset="1" stop-color="#3B3B3B"/></radialGradient><radialGradient cx="241.469" cy="140.075" r="2.3642" gradientUnits="userSpaceOnUse" id="SVGID_61_"><stop offset="0.473" stop-color="#BFBFBF"/><stop offset="1" stop-color="#3B3B3B"/></radialGradient><path d=" M 532.77 227.12 L 514.18 208.52 L 436.8 208.52 L 414.59 186.31 L 383.46 186.31 L 366.38 169.23 L 341.8 169.23 L 329.04 181.99 L 305.7 181.99 L 293.86 170.16 L 264.99 170.16 L 257.38 177.76 L 224.38 177.76 L 204.41 157.78 L 159.24 157.78 L 141.22 175.8 L 110.17 175.8 L 87.05 152.68 L 7.61 152.68 L 7.61 151.62 L 87.48 151.62 L 110.6 174.75 L 140.79 174.75 L 158.81 156.73 L 204.84 156.73 L 224.82 176.71 L 256.95 176.71 L 264.55 169.1 L 294.3 169.1 L 306.13 180.94 L 328.6 180.94 L 341.36 168.18 L 366.82 168.18 L 383.89 185.25 L 415.02 185.25 L 437.23 207.47 L 514.61 207.47 L 533.52 226.37 Z" fill="url(#SVGID_6_)"/><path d=" M 7.71 154.13 C 6.62 154.13 5.73 153.24 5.73 152.15 C 5.73 151.06 6.62 150.17 7.71 150.17 C 8.8 150.17 9.69 151.06 9.69 152.15 C 9.69 153.24 8.8 154.13 7.71 154.13 Z" fill="url(#SVGID_7_)"/><path d=" M 253.48 162.4 L 227.58 162.4 L 210.05 144.86 L 151.53 144.86 L 135.8 160.6 L 116.03 160.6 L 91.07 135.63 L 42.86 135.63 L 31.13 123.91 L 8.05 123.91 L 8.05 122.86 L 31.57 122.86 L 43.3 134.58 L 91.5 134.58 L 116.47 159.55 L 135.36 159.55 L 151.1 143.81 L 210.49 143.81 L 228.02 161.34 L 253.04 161.34 L 267.07 147.31 L 311.67 147.31 L 324.63 160.27 L 377.24 160.27 L 408.33 129.18 L 470.17 129.18 L 483.29 116.07 L 484.03 116.81 L 470.61 130.24 L 408.76 130.24 L 377.68 161.32 L 324.19 161.32 L 311.23 148.36 L 267.51 148.36 Z" fill="url(#SVGID_8_)"/><path d=" M 112.67 167.39 L 91.82 146.55 L 41.32 146.55 L 27.6 132.82 L 9.26 132.82 L 9.26 131.77 L 28.03 131.77 L 41.76 145.49 L 92.26 145.49 L 113.42 166.65 Z" fill="url(#SVGID_9_)"/><path d=" M 9.36 134.28 C 8.27 134.28 7.38 133.39 7.38 132.3 C 7.38 131.2 8.27 130.32 9.36 130.32 C 10.45 130.32 11.34 131.21 11.34 132.3 C 11.34 133.39 10.45 134.28 9.36 134.28 Z" fill="url(#SVGID_10_)"/><path d=" M 111.57 168.35 C 112.34 169.12 113.59 169.12 114.37 168.35 C 115.14 167.58 115.14 166.33 114.37 165.55 C 113.59 164.78 112.34 164.78 111.57 165.55 C 110.8 166.32 110.8 167.58 111.57 168.35 Z" fill="url(#SVGID_11_)"/><path d=" M 249.32 152.31 L 225.89 152.31 L 208.01 134.43 L 149.91 134.43 L 134.29 150.05 L 121.31 150.05 L 106.43 135.17 L 107.17 134.42 L 121.74 148.99 L 133.86 148.99 L 149.48 133.38 L 208.45 133.38 L 226.33 151.26 L 248.88 151.26 L 266.21 133.93 L 315.53 133.93 L 315.53 134.98 L 266.65 134.98 Z" fill="url(#SVGID_12_)"/><path d=" M 105.47 136.26 C 104.7 135.49 104.7 134.23 105.47 133.46 C 106.25 132.69 107.5 132.69 108.27 133.46 C 109.04 134.23 109.04 135.49 108.27 136.26 C 107.5 137.04 106.24 137.04 105.47 136.26 Z" fill="url(#SVGID_13_)"/><path d=" M 315.43 136.43 C 316.52 136.43 317.41 135.54 317.41 134.45 C 317.41 133.36 316.52 132.47 315.43 132.47 C 314.34 132.47 313.45 133.36 313.45 134.45 C 313.45 135.54 314.33 136.43 315.43 136.43 Z" fill="url(#SVGID_14_)"/><path d=" M 137.8 133.41 L 123.7 133.41 L 123.7 132.35 L 137.36 132.35 L 147.87 121.84 L 177.74 121.84 L 177.74 122.9 L 148.31 122.9 Z" fill="url(#SVGID_15_)"/><path d=" M 123.8 134.86 C 122.71 134.86 121.82 133.97 121.82 132.88 C 121.82 131.79 122.71 130.9 123.8 130.9 C 124.89 130.9 125.78 131.79 125.78 132.88 C 125.78 133.97 124.89 134.86 123.8 134.86 Z" fill="url(#SVGID_16_)"/><path d=" M 236.79 139.52 L 236.04 138.77 L 264.64 110.17 L 353.97 110.17 L 379.08 85.06 L 429.87 85.06 L 450.31 64.63 L 476.58 64.63 L 495.85 45.36 L 531.56 45.36 L 531.56 46.41 L 496.29 46.41 L 477.02 65.68 L 450.75 65.68 L 430.31 86.12 L 379.52 86.12 L 354.41 111.22 L 265.08 111.22 Z" fill="url(#SVGID_17_)"/><path d=" M 237.89 140.47 C 237.11 141.24 235.86 141.24 235.09 140.47 C 234.31 139.7 234.31 138.44 235.09 137.67 C 235.86 136.9 237.11 136.9 237.89 137.67 C 238.66 138.44 238.66 139.7 237.89 140.47 Z" fill="url(#SVGID_18_)"/><path d=" M 248.47 143.02 L 247.72 142.27 L 273.11 116.88 L 322.3 116.88 L 337.04 131.62 L 365.65 131.62 L 387.48 109.8 L 444.56 109.8 L 444.56 110.86 L 387.91 110.86 L 366.09 132.68 L 336.6 132.68 L 321.86 117.94 L 273.55 117.94 Z" fill="url(#SVGID_19_)"/><path d=" M 249.56 143.97 C 248.79 144.75 247.53 144.75 246.76 143.97 C 245.99 143.2 245.99 141.94 246.76 141.17 C 247.53 140.4 248.79 140.4 249.56 141.17 C 250.34 141.95 250.34 143.2 249.56 143.97 Z" fill="url(#SVGID_20_)"/><path d=" M 375.14 152.38 L 332.08 152.38 L 320.4 140.71 L 287.47 140.71 L 287.47 139.65 L 320.84 139.65 L 332.52 151.33 L 374.7 151.33 L 402.73 123.3 L 452.44 123.3 L 452.44 124.36 L 403.16 124.36 Z" fill="url(#SVGID_21_)"/><path d=" M 287.57 142.16 C 286.48 142.16 285.59 141.27 285.59 140.18 C 285.59 139.09 286.48 138.2 287.57 138.2 C 288.66 138.2 289.55 139.09 289.55 140.18 C 289.55 141.27 288.66 142.16 287.57 142.16 Z" fill="url(#SVGID_22_)"/><path d=" M 370.17 143.33 L 335.29 143.33 L 320.11 128.15 L 278.42 128.15 L 278.42 127.1 L 320.55 127.1 L 335.73 142.28 L 369.74 142.28 L 395.13 116.88 L 457.31 116.88 L 481.7 92.51 L 502.95 92.51 L 502.95 93.56 L 482.13 93.56 L 457.75 117.94 L 395.57 117.94 Z" fill="url(#SVGID_23_)"/><path d=" M 509.37 216.93 L 433.94 216.93 L 409.44 192.43 L 377.27 192.43 L 366.82 181.98 L 346.93 181.98 L 338.06 190.85 L 301.21 190.85 L 291.5 181.14 L 282.45 181.14 L 274.42 189.17 L 224.07 189.17 L 203.92 169.02 L 168.75 169.02 L 154.15 183.62 L 119.61 183.62 L 119.61 182.56 L 153.71 182.56 L 168.31 167.97 L 204.36 167.97 L 224.5 188.11 L 273.99 188.11 L 282.01 180.08 L 291.94 180.08 L 301.64 189.79 L 337.63 189.79 L 346.49 180.92 L 367.26 180.92 L 377.71 191.38 L 409.88 191.38 L 434.37 215.87 L 509.37 215.87 Z" fill="url(#SVGID_24_)"/><path d=" M 99.5 181.29 L 49.2 181.29 L 38.69 170.77 L 9.26 170.77 L 9.26 169.72 L 39.13 169.72 L 49.63 180.23 L 99.5 180.23 Z" fill="url(#SVGID_25_)"/><path d=" M 9.36 172.23 C 8.27 172.23 7.38 171.34 7.38 170.25 C 7.38 169.16 8.27 168.27 9.36 168.27 C 10.45 168.27 11.34 169.16 11.34 170.25 C 11.34 171.34 10.45 172.23 9.36 172.23 Z" fill="url(#SVGID_26_)"/><path d=" M 92.49 169.9 L 55.92 169.9 L 45.11 159.1 L 4.59 159.1 L 4.59 158.04 L 45.55 158.04 L 56.35 168.84 L 92.49 168.84 Z" fill="url(#SVGID_27_)"/><path d=" M 4.69 160.55 C 3.6 160.55 2.71 159.67 2.71 158.57 C 2.71 157.48 3.59 156.59 4.69 156.59 C 5.78 156.59 6.67 157.48 6.67 158.57 C 6.67 159.67 5.78 160.55 4.69 160.55 Z" fill="url(#SVGID_28_)"/><path d=" M 92.39 171.35 C 93.49 171.35 94.37 170.46 94.37 169.37 C 94.37 168.28 93.48 167.39 92.39 167.39 C 91.3 167.39 90.41 168.28 90.41 169.37 C 90.42 170.47 91.3 171.35 92.39 171.35 Z" fill="url(#SVGID_29_)"/><path d=" M 382.17 170.46 L 381.43 169.71 L 406.82 144.32 L 475.42 144.32 L 496.27 123.48 L 497.01 124.22 L 475.85 145.38 L 407.25 145.38 Z" fill="url(#SVGID_30_)"/><path d=" M 383.27 171.42 C 382.5 172.19 381.24 172.19 380.47 171.42 C 379.7 170.65 379.7 169.39 380.47 168.62 C 381.25 167.85 382.5 167.85 383.27 168.62 C 384.04 169.39 384.04 170.64 383.27 171.42 Z" fill="url(#SVGID_31_)"/><path d=" M 549.98 214.68 L 530.3 195.01 L 509.57 195.01 L 499.94 185.37 L 478.77 185.37 L 467.68 196.46 L 439.22 196.46 L 419.95 177.2 L 388.77 177.2 L 388.77 176.14 L 420.39 176.14 L 439.66 195.41 L 467.24 195.41 L 478.33 184.32 L 500.37 184.32 L 510.01 193.95 L 530.74 193.95 L 550.72 213.94 Z" fill="url(#SVGID_32_)"/><path d=" M 388.87 178.65 C 387.78 178.65 386.89 177.76 386.89 176.67 C 386.89 175.58 387.78 174.69 388.87 174.69 C 389.96 174.69 390.85 175.58 390.85 176.67 C 390.85 177.76 389.96 178.65 388.87 178.65 Z" fill="url(#SVGID_33_)"/><path d=" M 468.26 171.21 L 451.04 171.21 L 436.88 157.05 L 411.33 157.05 L 399.68 168.71 L 398.94 167.96 L 410.9 156 L 437.32 156 L 451.48 170.16 L 467.83 170.16 L 481.18 156.8 L 500.52 156.8 L 511.55 145.77 L 512.3 146.52 L 500.96 157.86 L 481.62 157.86 Z" fill="url(#SVGID_34_)"/><path d=" M 400.78 169.66 C 400 170.43 398.75 170.43 397.98 169.66 C 397.21 168.89 397.21 167.63 397.98 166.86 C 398.75 166.09 400.01 166.09 400.78 166.86 C 401.56 167.64 401.56 168.89 400.78 169.66 Z" fill="url(#SVGID_35_)"/><path d=" M 513.26 147.61 C 514.03 146.84 514.03 145.58 513.26 144.81 C 512.48 144.04 511.23 144.04 510.46 144.81 C 509.69 145.58 509.69 146.84 510.46 147.61 C 511.23 148.39 512.48 148.39 513.26 147.61 Z" fill="url(#SVGID_36_)"/><path d=" M 492.78 151.51 L 461.75 151.51 L 461.75 150.45 L 492.35 150.45 L 515.38 127.42 L 516.13 128.16 Z" fill="url(#SVGID_37_)"/><path d=" M 461.85 152.96 C 460.76 152.96 459.87 152.07 459.87 150.98 C 459.87 149.89 460.75 149 461.85 149 C 462.94 149 463.83 149.89 463.83 150.98 C 463.83 152.07 462.94 152.96 461.85 152.96 Z" fill="url(#SVGID_38_)"/><path d=" M 517.09 129.26 C 517.87 128.49 517.87 127.23 517.09 126.46 C 516.32 125.69 515.07 125.69 514.29 126.46 C 513.51 127.23 513.51 128.49 514.29 129.26 C 515.06 130.03 516.32 130.03 517.09 129.26 Z" fill="url(#SVGID_39_)"/><path d=" M 478.19 177.49 L 436.59 177.49 L 428.13 169.02 L 410.37 169.02 L 410.37 167.97 L 428.56 167.97 L 437.03 176.43 L 477.75 176.43 L 487.82 166.36 L 508.69 166.36 L 539.11 135.95 L 539.85 136.7 L 509.13 167.42 L 488.26 167.42 Z" fill="url(#SVGID_40_)"/><path d=" M 410.47 170.48 C 409.38 170.48 408.49 169.59 408.49 168.5 C 408.49 167.4 409.38 166.52 410.47 166.52 C 411.57 166.52 412.46 167.41 412.46 168.5 C 412.45 169.59 411.57 170.48 410.47 170.48 Z" fill="url(#SVGID_41_)"/><path d=" M 540.8 137.8 C 541.58 137.03 541.58 135.77 540.8 135 C 540.03 134.23 538.78 134.23 538 135 C 537.23 135.77 537.23 137.03 538 137.8 C 538.78 138.57 540.04 138.57 540.8 137.8 Z" fill="url(#SVGID_42_)"/><path d=" M 462.66 188 L 438.34 188 L 428.72 178.37 L 429.46 177.63 L 438.78 186.95 L 462.66 186.95 Z" fill="url(#SVGID_43_)"/><path d=" M 427.76 179.47 C 426.99 178.7 426.99 177.44 427.76 176.67 C 428.54 175.9 429.79 175.9 430.56 176.67 C 431.33 177.44 431.33 178.7 430.56 179.47 C 429.78 180.24 428.53 180.24 427.76 179.47 Z" fill="url(#SVGID_44_)"/><path d=" M 418.65 140.01 C 419.96 140.01 421.01 138.95 421.01 137.65 C 421.01 136.34 419.95 135.28 418.65 135.28 C 417.35 135.28 416.29 136.34 416.29 137.65 C 416.28 138.95 417.34 140.01 418.65 140.01 Z" fill="url(#SVGID_45_)"/><path d=" M 118.87 170.19 L 117.98 169.3 L 148.35 138.93 L 201.32 138.93 L 219.62 120.63 L 370.3 120.63 L 370.3 121.89 L 220.14 121.89 L 201.85 140.19 L 148.87 140.19 Z" fill="url(#SVGID_46_)"/><path d=" M 127.2 150.57 L 126.31 149.68 L 138.97 137.02 L 159.25 137.02 L 159.25 138.28 L 139.49 138.28 Z" fill="url(#SVGID_47_)"/><path d=" M 159.13 140.01 C 160.43 140.01 161.49 138.95 161.49 137.65 C 161.49 136.34 160.43 135.28 159.13 135.28 C 157.82 135.28 156.76 136.34 156.76 137.65 C 156.76 138.95 157.82 140.01 159.13 140.01 Z" fill="url(#SVGID_48_)"/><path d=" M 244.51 160.03 L 214.47 160.03 L 201.79 147.36 L 202.69 146.47 L 214.99 158.77 L 244.51 158.77 Z" fill="url(#SVGID_49_)"/><path d=" M 203.99 145.33 C 203.07 144.41 201.57 144.41 200.65 145.33 C 199.73 146.25 199.73 147.75 200.65 148.67 C 201.57 149.59 203.07 149.59 203.99 148.67 C 204.92 147.75 204.92 146.25 203.99 145.33 Z" fill="url(#SVGID_50_)"/><path d=" M 241.09 190.74 L 178.64 190.74 L 166.89 178.99 L 167.78 178.1 L 179.16 189.49 L 240.57 189.49 L 279.48 150.58 L 336.35 150.58 L 336.35 151.84 L 280 151.84 Z" fill="url(#SVGID_51_)"/><path d=" M 336.24 153.58 C 337.55 153.58 338.6 152.52 338.6 151.22 C 338.6 149.91 337.54 148.86 336.24 148.86 C 334.94 148.86 333.88 149.92 333.88 151.22 C 333.87 152.52 334.93 153.58 336.24 153.58 Z" fill="url(#SVGID_52_)"/><path d=" M 320.11 137.84 L 319.22 136.95 L 330.66 125.5 L 392.66 125.5 L 392.66 126.76 L 331.18 126.76 Z" fill="url(#SVGID_53_)"/><path d=" M 412.2 179.88 L 398.23 165.92 L 307.88 165.92 L 293.62 151.66 L 294.51 150.77 L 308.41 164.66 L 398.75 164.66 L 413.09 179 Z" fill="url(#SVGID_54_)"/><path d=" M 410.89 181.03 C 411.81 181.95 413.31 181.95 414.24 181.03 C 415.16 180.11 415.16 178.61 414.24 177.69 C 413.32 176.77 411.82 176.77 410.89 177.69 C 409.96 178.61 409.96 180.1 410.89 181.03 Z" fill="url(#SVGID_55_)"/><path d=" M 24.06 160.29 L 0 160.29 L 0 159.03 L 23.54 159.03 L 44.79 137.79 L 66.09 137.79 L 66.09 139.05 L 45.3 139.05 Z" fill="url(#SVGID_56_)"/><path d=" M 65.97 140.78 C 67.28 140.78 68.33 139.72 68.33 138.42 C 68.33 137.11 67.27 136.05 65.97 136.05 C 64.66 136.05 63.61 137.11 63.61 138.42 C 63.61 139.72 64.66 140.78 65.97 140.78 Z" fill="url(#SVGID_57_)"/><path d=" M 108.77 137 L 91.36 137 L 83.05 128.68 L 83.93 127.79 L 91.88 135.74 L 108.77 135.74 Z" fill="url(#SVGID_58_)"/><path d=" M 85.24 126.64 C 84.32 125.72 82.82 125.72 81.9 126.64 C 80.98 127.56 80.98 129.06 81.9 129.98 C 82.82 130.9 84.32 130.9 85.24 129.98 C 86.17 129.06 86.17 127.57 85.24 126.64 Z" fill="url(#SVGID_59_)"/><path d=" M 241.11 140.6 L 235.46 134.95 L 186.07 134.95 L 186.07 133.69 L 235.98 133.69 L 242 139.71 Z" fill="url(#SVGID_60_)"/><path d=" M 239.79 141.75 C 240.71 142.67 242.21 142.67 243.14 141.75 C 244.06 140.83 244.06 139.33 243.14 138.41 C 242.22 137.49 240.72 137.49 239.79 138.41 C 238.87 139.33 238.87 140.82 239.79 141.75 Z" fill="url(#SVGID_61_)"/></g></g><g><g><linearGradient x1="160.148" y1="119.071" x2="160.148" y2="93.0373" gradientUnits="userSpaceOnUse" id="SVGID_62_"><stop offset="0" stop-color="#D0F7FF"/><stop offset="0.0274" stop-color="#A7C6CC"/><stop offset="0.0572" stop-color="#80989D"/><stop offset="0.0888" stop-color="#5E6F73"/><stop offset="0.1217" stop-color="#414D4F"/><stop offset="0.1561" stop-color="#293132"/><stop offset="0.1928" stop-color="#171B1C"/><stop offset="0.2326" stop-color="#0A0C0C"/><stop offset="0.2778" stop-color="#020303"/><stop offset="0.3406" stop-color="#000000"/><stop offset="0.6981" stop-color="#000000"/><stop offset="0.7302" stop-color="#040505"/><stop offset="0.7675" stop-color="#0F1213"/><stop offset="0.8075" stop-color="#23292A"/><stop offset="0.8493" stop-color="#3D494B"/><stop offset="0.8926" stop-color="#5F7175"/><stop offset="0.937" stop-color="#89A3A9"/><stop offset="0.9816" stop-color="#BADDE4"/><stop offset="1" stop-color="#D0F7FF"/></linearGradient><linearGradient x1="160.148" y1="132.744" x2="160.148" y2="122.068" gradientUnits="userSpaceOnUse" id="SVGID_63_"><stop offset="0" stop-color="#D0F7FF"/><stop offset="0.0274" stop-color="#A7C6CC"/><stop offset="0.0572" stop-color="#80989D"/><stop offset="0.0888" stop-color="#5E6F73"/><stop offset="0.1217" stop-color="#414D4F"/><stop offset="0.1561" stop-color="#293132"/><stop offset="0.1928" stop-color="#171B1C"/><stop offset="0.2326" stop-color="#0A0C0C"/><stop offset="0.2778" stop-color="#020303"/><stop offset="0.3406" stop-color="#000000"/><stop offset="0.6981" stop-color="#000000"/><stop offset="0.7302" stop-color="#040505"/><stop offset="0.7675" stop-color="#0F1213"/><stop offset="0.8075" stop-color="#23292A"/><stop offset="0.8493" stop-color="#3D494B"/><stop offset="0.8926" stop-color="#5F7175"/><stop offset="0.937" stop-color="#89A3A9"/><stop offset="0.9816" stop-color="#BADDE4"/><stop offset="1" stop-color="#D0F7FF"/></linearGradient><linearGradient x1="87.7424" y1="145.018" x2="160.704" y2="145.018" gradientUnits="userSpaceOnUse" id="SVGID_64_"><stop offset="0" stop-color="#00BEE4"/><stop offset="0.0139" stop-color="#00AACC"/><stop offset="0.045" stop-color="#00839D"/><stop offset="0.078" stop-color="#006073"/><stop offset="0.1123" stop-color="#00424F"/><stop offset="0.1482" stop-color="#002A32"/><stop offset="0.1864" stop-color="#00171C"/><stop offset="0.2279" stop-color="#000A0C"/><stop offset="0.2751" stop-color="#000203"/><stop offset="0.3406" stop-color="#000000"/><stop offset="0.6981" stop-color="#000000"/><stop offset="0.7323" stop-color="#000405"/><stop offset="0.7721" stop-color="#001013"/><stop offset="0.8146" stop-color="#00232A"/><stop offset="0.8591" stop-color="#003E4B"/><stop offset="0.9052" stop-color="#006175"/><stop offset="0.9525" stop-color="#008CA8"/><stop offset="1" stop-color="#00BEE4"/></linearGradient><linearGradient x1="89.7691" y1="145.018" x2="88.022" y2="145.018" gradientUnits="userSpaceOnUse" id="SVGID_65_"><stop offset="0" stop-color="#000000"/><stop offset="0.1064" stop-color="#040505"/><stop offset="0.2301" stop-color="#0F1213"/><stop offset="0.3625" stop-color="#23292A"/><stop offset="0.5009" stop-color="#3D494B"/><stop offset="0.6442" stop-color="#5F7175"/><stop offset="0.7914" stop-color="#89A3A9"/><stop offset="0.9391" stop-color="#BADDE4"/><stop offset="1" stop-color="#D0F7FF"/></linearGradient><linearGradient x1="-3493.04" y1="145.018" x2="-3494.79" y2="145.018" gradientUnits="userSpaceOnUse" id="SVGID_66_" gradientTransform="matrix(-1,0,0,1,-3334.41,0)"><stop offset="0" stop-color="#000000"/><stop offset="0.1064" stop-color="#040505"/><stop offset="0.2301" stop-color="#0F1213"/><stop offset="0.3625" stop-color="#23292A"/><stop offset="0.5009" stop-color="#3D494B"/><stop offset="0.6442" stop-color="#5F7175"/><stop offset="0.7914" stop-color="#89A3A9"/><stop offset="0.9391" stop-color="#BADDE4"/><stop offset="1" stop-color="#D0F7FF"/></linearGradient><linearGradient x1="124.223" y1="72.7415" x2="124.223" y2="67.5065" gradientUnits="userSpaceOnUse" id="SVGID_67_"><stop offset="0" stop-color="#000000"/><stop offset="0.1064" stop-color="#040505"/><stop offset="0.2301" stop-color="#0F1213"/><stop offset="0.3625" stop-color="#23292A"/><stop offset="0.5009" stop-color="#3D494B"/><stop offset="0.6442" stop-color="#5F7175"/><stop offset="0.7914" stop-color="#89A3A9"/><stop offset="0.9391" stop-color="#BADDE4"/><stop offset="1" stop-color="#D0F7FF"/></linearGradient><linearGradient x1="-3679.1" y1="-2278.62" x2="-3679.1" y2="-2283.86" gradientUnits="userSpaceOnUse" id="SVGID_68_" gradientTransform="matrix(-1,0,0,-1,-3554.88,-2061.37)"><stop offset="0" stop-color="#000000"/><stop offset="0.1064" stop-color="#040505"/><stop offset="0.2301" stop-color="#0F1213"/><stop offset="0.3625" stop-color="#23292A"/><stop offset="0.5009" stop-color="#3D494B"/><stop offset="0.6442" stop-color="#5F7175"/><stop offset="0.7914" stop-color="#89A3A9"/><stop offset="0.9391" stop-color="#BADDE4"/><stop offset="1" stop-color="#D0F7FF"/></linearGradient><linearGradient x1="62.9965" y1="78.7773" x2="182.697" y2="208.281" gradientUnits="userSpaceOnUse" id="SVGID_69_"><stop offset="0.00592178" stop-color="#4494A3"/><stop offset="0.0982" stop-color="#377784"/><stop offset="0.2354" stop-color="#26535C"/><stop offset="0.3768" stop-color="#18353A"/><stop offset="0.5213" stop-color="#0E1E21"/><stop offset="0.6701" stop-color="#060D0E"/><stop offset="0.8259" stop-color="#010304"/><stop offset="1" stop-color="#000000"/></linearGradient><path d=" M 160.75 119.07 L 159.55 119.07 C 159.19 119.07 158.89 118.78 158.89 118.41 L 158.89 93.69 C 158.89 93.33 159.18 93.03 159.55 93.03 L 160.75 93.03 C 161.11 93.03 161.41 93.32 161.41 93.69 L 161.41 118.41 C 161.4 118.78 161.11 119.07 160.75 119.07 Z" fill="url(#SVGID_62_)"/><path d=" M 160.75 132.74 L 159.55 132.74 C 159.19 132.74 158.89 132.45 158.89 132.08 L 158.89 122.72 C 158.89 122.36 159.18 122.06 159.55 122.06 L 160.75 122.06 C 161.11 122.06 161.41 122.35 161.41 122.72 L 161.41 132.08 C 161.4 132.45 161.11 132.74 160.75 132.74 Z" fill="url(#SVGID_63_)"/><path d=" M 150.51 222.01 L 97.93 222.01 C 92.3 222.01 87.74 217.45 87.74 211.82 L 87.74 78.22 C 87.74 72.59 92.3 68.03 97.93 68.03 L 150.51 68.03 C 156.14 68.03 160.7 72.59 160.7 78.22 L 160.7 211.81 C 160.7 217.44 156.14 222.01 150.51 222.01 Z" fill="url(#SVGID_64_)"/><path d=" M 88.88 211.93 L 88.88 78.11 C 88.88 75.59 89.8 73.28 91.31 71.5 C 89.32 73.36 88.08 76.01 88.08 78.94 L 88.08 211.09 C 88.08 214.03 89.32 216.67 91.31 218.53 C 89.8 216.76 88.88 214.45 88.88 211.93 Z" fill="url(#SVGID_65_)"/><path d=" M 159.51 211.93 L 159.51 78.11 C 159.51 75.59 158.59 73.28 157.08 71.5 C 159.07 73.36 160.31 76.01 160.31 78.94 L 160.31 211.09 C 160.31 214.03 159.07 216.67 157.08 218.53 C 158.6 216.76 159.51 214.45 159.51 211.93 Z" fill="url(#SVGID_66_)"/><path d=" M 149.66 68.8 L 98.79 68.8 C 93.16 68.8 88.6 73.36 88.6 78.99 L 88.6 80.45 C 88.6 74.82 93.16 70.26 98.79 70.26 L 149.66 70.26 C 155.29 70.26 159.85 74.82 159.85 80.45 L 159.85 78.99 C 159.85 73.36 155.29 68.8 149.66 68.8 Z" fill="url(#SVGID_67_)"/><path d=" M 98.79 221.19 L 149.66 221.19 C 155.29 221.19 159.85 216.63 159.85 211 L 159.85 209.54 C 159.85 215.17 155.29 219.73 149.66 219.73 L 98.79 219.73 C 93.16 219.73 88.6 215.17 88.6 209.54 L 88.6 211 C 88.6 216.63 93.16 221.19 98.79 221.19 Z" fill="url(#SVGID_68_)"/><path d=" M 152.55 218.67 L 95.89 218.67 C 92.43 218.67 89.62 215.86 89.62 212.4 L 89.62 77.64 C 89.62 74.18 92.43 71.37 95.89 71.37 L 152.55 71.37 C 156.01 71.37 158.82 74.18 158.82 77.64 L 158.82 212.4 C 158.82 215.86 156.01 218.67 152.55 218.67 Z" fill="url(#SVGID_69_)"/><rect x="117.54" y="68.06" width="13.36" height="1.37"/></g><g><linearGradient x1="160.148" y1="119.071" x2="160.148" y2="93.0373" gradientUnits="userSpaceOnUse" id="SVGID_70_"><stop offset="0" stop-color="#D0FFFF"/><stop offset="0.0274" stop-color="#A7CCCC"/><stop offset="0.0572" stop-color="#809D9D"/><stop offset="0.0888" stop-color="#5E7373"/><stop offset="0.1217" stop-color="#414F4F"/><stop offset="0.1561" stop-color="#293232"/><stop offset="0.1928" stop-color="#171C1C"/><stop offset="0.2326" stop-color="#0A0C0C"/><stop offset="0.2778" stop-color="#020303"/><stop offset="0.3406" stop-color="#000000"/><stop offset="0.6981" stop-color="#000000"/><stop offset="0.7302" stop-color="#040505"/><stop offset="0.7675" stop-color="#0F1313"/><stop offset="0.8075" stop-color="#232A2A"/><stop offset="0.8493" stop-color="#3D4B4B"/><stop offset="0.8926" stop-color="#5F7575"/><stop offset="0.937" stop-color="#89A9A9"/><stop offset="0.9816" stop-color="#BAE4E4"/><stop offset="1" stop-color="#D0FFFF"/></linearGradient><linearGradient x1="160.148" y1="132.744" x2="160.148" y2="122.068" gradientUnits="userSpaceOnUse" id="SVGID_71_"><stop offset="0" stop-color="#D0FFFF"/><stop offset="0.0274" stop-color="#A7CCCC"/><stop offset="0.0572" stop-color="#809D9D"/><stop offset="0.0888" stop-color="#5E7373"/><stop offset="0.1217" stop-color="#414F4F"/><stop offset="0.1561" stop-color="#293232"/><stop offset="0.1928" stop-color="#171C1C"/><stop offset="0.2326" stop-color="#0A0C0C"/><stop offset="0.2778" stop-color="#020303"/><stop offset="0.3406" stop-color="#000000"/><stop offset="0.6981" stop-color="#000000"/><stop offset="0.7302" stop-color="#040505"/><stop offset="0.7675" stop-color="#0F1313"/><stop offset="0.8075" stop-color="#232A2A"/><stop offset="0.8493" stop-color="#3D4B4B"/><stop offset="0.8926" stop-color="#5F7575"/><stop offset="0.937" stop-color="#89A9A9"/><stop offset="0.9816" stop-color="#BAE4E4"/><stop offset="1" stop-color="#D0FFFF"/></linearGradient><linearGradient x1="89.7691" y1="145.018" x2="88.022" y2="145.018" gradientUnits="userSpaceOnUse" id="SVGID_72_"><stop offset="0" stop-color="#000000"/><stop offset="0.1613" stop-color="#040505"/><stop offset="0.3487" stop-color="#0F1313"/><stop offset="0.5492" stop-color="#232A2A"/><stop offset="0.7587" stop-color="#3D4B4B"/><stop offset="0.9734" stop-color="#5F7474"/><stop offset="1" stop-color="#647A7A"/></linearGradient><linearGradient x1="-3493.04" y1="145.018" x2="-3494.79" y2="145.018" gradientUnits="userSpaceOnUse" id="SVGID_73_" gradientTransform="matrix(-1,0,0,1,-3334.41,0)"><stop offset="0" stop-color="#000000"/><stop offset="0.1613" stop-color="#040505"/><stop offset="0.3487" stop-color="#0F1313"/><stop offset="0.5492" stop-color="#232A2A"/><stop offset="0.7587" stop-color="#3D4B4B"/><stop offset="0.9734" stop-color="#5F7474"/><stop offset="1" stop-color="#647A7A"/></linearGradient><linearGradient x1="124.223" y1="72.7415" x2="124.223" y2="67.5065" gradientUnits="userSpaceOnUse" id="SVGID_74_"><stop offset="0" stop-color="#000000"/><stop offset="0.1613" stop-color="#040505"/><stop offset="0.3487" stop-color="#0F1313"/><stop offset="0.5492" stop-color="#232A2A"/><stop offset="0.7587" stop-color="#3D4B4B"/><stop offset="0.9734" stop-color="#5F7474"/><stop offset="1" stop-color="#647A7A"/></linearGradient><linearGradient x1="-3679.1" y1="-2278.62" x2="-3679.1" y2="-2283.86" gradientUnits="userSpaceOnUse" id="SVGID_75_" gradientTransform="matrix(-1,0,0,-1,-3554.88,-2061.37)"><stop offset="0" stop-color="#000000"/><stop offset="0.1613" stop-color="#040505"/><stop offset="0.3487" stop-color="#0F1313"/><stop offset="0.5492" stop-color="#232A2A"/><stop offset="0.7587" stop-color="#3D4B4B"/><stop offset="0.9734" stop-color="#5F7474"/><stop offset="1" stop-color="#647A7A"/></linearGradient><linearGradient x1="62.9965" y1="78.7773" x2="123.406" y2="144.135" gradientUnits="userSpaceOnUse" id="SVGID_76_"><stop offset="0.0108" stop-color="#4D6782"/><stop offset="1" stop-color="#000000"/></linearGradient><linearGradient x1="30.481" y1="92.2415" x2="155.082" y2="148.505" gradientUnits="userSpaceOnUse" id="SVGID_77_"><stop offset="0" stop-color="#79A3D2"/><stop offset="0.0654" stop-color="#688DB5"/><stop offset="0.1878" stop-color="#4D6886"/><stop offset="0.3141" stop-color="#35485D"/><stop offset="0.4422" stop-color="#222E3B"/><stop offset="0.5727" stop-color="#131A21"/><stop offset="0.7066" stop-color="#080B0F"/><stop offset="0.846" stop-color="#020304"/><stop offset="1" stop-color="#000000"/></linearGradient><path d=" M 160.75 119.07 L 159.55 119.07 C 159.19 119.07 158.89 118.78 158.89 118.41 L 158.89 93.69 C 158.89 93.33 159.18 93.03 159.55 93.03 L 160.75 93.03 C 161.11 93.03 161.41 93.32 161.41 93.69 L 161.41 118.41 C 161.4 118.78 161.11 119.07 160.75 119.07 Z" fill="url(#SVGID_70_)"/><path d=" M 160.75 132.74 L 159.55 132.74 C 159.19 132.74 158.89 132.45 158.89 132.08 L 158.89 122.72 C 158.89 122.36 159.18 122.06 159.55 122.06 L 160.75 122.06 C 161.11 122.06 161.41 122.35 161.41 122.72 L 161.41 132.08 C 161.4 132.45 161.11 132.74 160.75 132.74 Z" fill="url(#SVGID_71_)"/><path d=" M 88.88 211.93 L 88.88 78.11 C 88.88 75.59 89.8 73.28 91.31 71.5 C 89.32 73.36 88.08 76.01 88.08 78.94 L 88.08 211.09 C 88.08 214.03 89.32 216.67 91.31 218.53 C 89.8 216.76 88.88 214.45 88.88 211.93 Z" fill="url(#SVGID_72_)"/><path d=" M 159.51 211.93 L 159.51 78.11 C 159.51 75.59 158.59 73.28 157.08 71.5 C 159.07 73.36 160.31 76.01 160.31 78.94 L 160.31 211.09 C 160.31 214.03 159.07 216.67 157.08 218.53 C 158.6 216.76 159.51 214.45 159.51 211.93 Z" fill="url(#SVGID_73_)"/><path d=" M 149.66 68.8 L 98.79 68.8 C 93.16 68.8 88.6 73.36 88.6 78.99 L 88.6 80.45 C 88.6 74.82 93.16 70.26 98.79 70.26 L 149.66 70.26 C 155.29 70.26 159.85 74.82 159.85 80.45 L 159.85 78.99 C 159.85 73.36 155.29 68.8 149.66 68.8 Z" fill="url(#SVGID_74_)"/><path d=" M 98.79 221.19 L 149.66 221.19 C 155.29 221.19 159.85 216.63 159.85 211 L 159.85 209.54 C 159.85 215.17 155.29 219.73 149.66 219.73 L 98.79 219.73 C 93.16 219.73 88.6 215.17 88.6 209.54 L 88.6 211 C 88.6 216.63 93.16 221.19 98.79 221.19 Z" fill="url(#SVGID_75_)"/><path d=" M 152.55 218.67 L 95.89 218.67 C 92.43 218.67 89.62 215.86 89.62 212.4 L 89.62 77.64 C 89.62 74.18 92.43 71.37 95.89 71.37 L 152.55 71.37 C 156.01 71.37 158.82 74.18 158.82 77.64 L 158.82 212.4 C 158.82 215.86 156.01 218.67 152.55 218.67 Z" fill="url(#SVGID_76_)"/><rect x="117.54" y="68.06" width="13.36" height="1.37"/><path d=" M 140.58 71.37 L 89.63 189.53 L 89.63 79.08 C 89.63 74.82 93.08 71.37 97.34 71.37 L 140.58 71.37 Z" fill="url(#SVGID_77_)"/></g></g></g></svg>